<svg xmlns="http://www.w3.org/2000/svg" xmlns:v="https://svgstorm.com"
viewBox = "0 0 315 232"
width="315"
height="232">
<g fill="None" fill-opacity="0.0" stroke="#000000" stroke-opacity="0.00" stroke-width="0.3"><path d="
M 0.00 232.00 
L 315.00 232.00
L 315.00 0.00
L 0.00 0.00
L 0.00 232.00
M 107.00 63.00 
C 113.99 64.45 120.39 67.58 123.00 75.00
C 124.43 79.07 123.75 83.36 123.00 87.00
C 121.36 94.93 117.40 98.37 110.00 101.00
C 101.79 103.92 90.91 103.71 82.00 102.00
C 82.98 100.36 85.61 101.41 87.00 100.00
C 86.67 96.40 87.00 92.62 87.00 89.00
C 87.00 81.74 88.74 72.01 87.00 65.00
C 86.77 64.09 83.68 63.55 84.00 62.00
C 91.50 62.66 100.33 60.67 107.00 63.00
M 147.00 76.00 
C 147.00 84.27 143.69 99.14 152.00 102.00
C 145.77 103.57 138.24 103.56 132.00 102.00
C 132.73 100.65 134.83 101.04 136.00 100.00
C 136.00 93.33 136.00 86.67 136.00 80.00
C 136.00 75.19 134.48 68.23 135.00 64.00
C 135.47 60.16 143.20 62.74 148.00 62.00
C 146.92 66.45 146.84 71.22 147.00 76.00
M 176.00 79.00 
C 176.00 82.61 175.11 87.53 176.00 91.00
C 176.45 91.72 176.59 92.10 177.00 93.00
C 181.99 103.91 194.86 95.43 196.00 87.00
C 195.38 80.13 196.00 72.90 196.00 66.00
C 193.86 64.69 191.33 64.06 190.00 62.00
C 194.00 62.00 198.00 62.00 202.00 62.00
C 201.56 63.29 200.42 64.21 199.00 64.00
C 198.74 64.11 198.35 64.97 198.00 65.00
C 198.75 73.36 198.86 84.49 197.00 92.00
C 193.97 104.25 172.82 109.33 167.00 96.00
C 166.07 93.88 166.12 92.37 166.00 90.00
C 165.64 87.75 165.00 84.88 165.00 82.00
C 165.00 76.46 164.36 70.50 165.00 65.00
C 165.10 64.14 163.29 63.12 164.00 62.00
C 168.63 62.48 173.80 60.92 178.00 63.00
C 174.20 67.28 176.74 73.71 176.00 79.00
M 75.00 140.00 
C 74.82 140.43 75.00 141.00 75.00 141.00
C 75.00 143.59 74.66 146.44 75.00 149.00
C 76.96 153.71 80.98 166.48 89.67 161.67 C 98.36 156.86 105.49 164.15 93.00 165.00
C 89.23 165.68 85.76 165.93 82.00 165.00
C 75.50 163.39 69.29 159.54 69.00 152.00
C 68.37 149.15 67.57 145.52 68.00 142.00
C 68.14 140.85 68.82 140.67 69.00 140.00
C 72.60 126.43 85.57 121.07 99.00 127.00
C 99.00 130.00 99.00 133.00 99.00 136.00
C 93.86 135.90 91.55 127.04 85.00 129.00 C 78.45 130.96 77.21 134.32 75.00 140.00
M 120.00 137.00 
C 119.54 138.19 119.19 139.67 119.00 141.00
C 118.63 143.65 118.65 147.35 119.00 150.00
C 119.92 152.16 120.17 154.76 121.00 157.00
C 121.27 157.40 123.66 159.77 124.00 160.00
C 128.07 161.50 135.57 163.66 139.00 160.00
C 139.47 159.10 139.39 153.96 139.00 153.00
C 137.34 150.43 132.49 151.72 133.00 147.00
C 137.00 147.00 141.00 147.00 145.00 147.00
C 145.00 150.67 145.00 154.33 145.00 158.00
C 143.96 171.65 119.60 166.64 114.00 157.00
C 111.67 152.99 111.63 147.69 112.00 143.00
C 112.21 140.31 112.85 137.46 114.00 135.00
C 119.16 123.96 133.91 122.97 144.00 127.00
C 144.00 130.00 144.00 133.00 144.00 136.00
C 138.61 136.28 138.06 128.53 132.00 129.00 C 125.94 129.48 122.35 131.27 120.00 137.00
M 187.00 140.00 
C 186.69 141.09 186.58 141.96 186.00 143.00
C 185.21 144.42 184.30 145.18 183.00 146.00
C 176.55 150.07 166.84 144.85 167.00 154.00
C 167.03 155.99 169.00 158.64 168.00 161.00
C 169.57 161.39 172.22 160.06 173.00 162.00
C 175.97 166.24 157.15 166.37 156.00 164.00
C 154.24 160.37 159.83 161.47 161.00 160.00
C 161.00 153.67 161.00 147.33 161.00 141.00
C 161.00 138.58 162.21 132.01 161.00 130.00
C 159.39 128.11 153.55 129.83 155.00 125.00
C 167.14 124.76 191.24 121.57 187.00 140.00
M 226.00 141.00 
C 227.42 144.75 229.47 148.97 231.00 153.00
C 233.11 158.58 236.81 160.50 239.00 165.00
C 234.09 163.66 224.77 168.06 223.00 162.00
C 227.27 161.12 225.43 157.28 225.00 154.00
C 223.24 152.16 209.48 151.78 208.00 154.00
C 207.93 154.15 207.00 158.27 207.00 158.00
C 208.42 160.20 209.90 161.81 210.00 165.00
C 205.33 165.00 200.67 165.00 196.00 165.00
C 196.13 159.95 203.82 159.27 204.00 153.00
C 205.85 147.99 208.08 142.71 210.00 138.00
C 212.14 132.74 212.41 122.67 221.00 125.00
C 221.89 130.57 225.51 135.30 226.00 141.00 Z"/>
</g>
<g fill="None" fill-opacity="0.0" stroke="#1FC4C9" stroke-opacity="0.16" stroke-width="0.3"><path d="
M 87.00 65.00 
C 88.19 62.15 91.47 63.10 94.00 63.00
C 98.22 62.84 102.80 62.62 107.00 63.00
C 100.33 60.67 91.50 62.66 84.00 62.00
C 83.68 63.55 86.77 64.09 87.00 65.00 Z"/>
</g>
<g fill="None" fill-opacity="0.0" stroke="#26C6D5" stroke-opacity="0.86" stroke-width="0.3"><path d="
M 135.00 64.00 
C 137.63 63.21 137.00 70.45 137.00 73.00
C 139.34 76.31 144.79 71.46 146.00 76.00
C 146.03 76.12 147.00 76.00 147.00 76.00
C 146.84 71.22 146.92 66.45 148.00 62.00
C 143.20 62.74 135.47 60.16 135.00 64.00 Z"/>
</g>
<g fill="None" fill-opacity="0.0" stroke="#28C4D6" stroke-opacity="0.89" stroke-width="0.3"><path d="
M 165.00 65.00 
C 165.01 67.44 166.00 71.81 166.00 75.00
C 166.23 75.67 167.71 76.72 167.00 78.00
C 170.00 77.90 173.43 78.83 175.00 76.00
C 175.00 77.00 175.00 78.00 175.00 79.00
C 175.00 79.00 176.00 79.00 176.00 79.00
C 176.74 73.71 174.20 67.28 178.00 63.00
C 173.80 60.92 168.63 62.48 164.00 62.00
C 163.29 63.12 165.10 64.14 165.00 65.00 Z"/>
</g>
<g fill="None" fill-opacity="0.0" stroke="#19A4AA" stroke-opacity="0.18" stroke-width="0.3"><path d="
M 196.00 66.00 
C 196.00 65.50 196.00 65.00 196.00 65.00
C 195.30 64.43 194.03 64.15 194.00 63.00
C 195.94 62.38 197.13 64.20 199.00 64.00
C 200.42 64.21 201.56 63.29 202.00 62.00
C 198.00 62.00 194.00 62.00 190.00 62.00
C 191.33 64.06 193.86 64.69 196.00 66.00 Z"/>
</g>
<g fill="None" fill-opacity="0.0" stroke="#29C6D9" stroke-opacity="1.00" stroke-width="0.3"><path d="
M 87.00 65.00 
C 86.85 65.36 88.00 72.47 88.00 74.00
C 88.23 74.67 89.71 75.72 89.00 77.00
C 92.53 77.21 96.00 77.59 97.00 74.00
C 97.00 71.04 96.73 67.94 97.00 65.00
C 96.39 64.66 94.59 63.14 94.00 63.00
C 91.47 63.10 88.19 62.15 87.00 65.00 Z"/>
</g>
<g fill="None" fill-opacity="0.0" stroke="#28C3D4" stroke-opacity="0.81" stroke-width="0.3"><path d="
M 97.00 65.00 
C 97.38 65.21 98.00 65.00 98.00 65.00
C 100.21 63.27 101.91 64.36 104.00 65.00
C 109.02 65.81 111.01 70.55 112.00 75.00
C 114.58 77.99 120.23 77.35 123.00 75.00
C 120.39 67.58 113.99 64.45 107.00 63.00
C 102.80 62.62 98.22 62.84 94.00 63.00
C 94.59 63.14 96.39 64.66 97.00 65.00 Z"/>
</g>
<g fill="None" fill-opacity="0.0" stroke="#2ED8F0" stroke-opacity="0.17" stroke-width="0.3"><path d="
M 135.00 64.00 
C 134.48 68.23 136.00 75.19 136.00 80.00
C 136.00 79.96 137.00 80.00 137.00 80.00
C 137.00 77.67 137.00 75.33 137.00 73.00
C 137.00 70.45 137.63 63.21 135.00 64.00 Z"/>
</g>
<g fill="None" fill-opacity="0.0" stroke="#1ABBBF" stroke-opacity="0.47" stroke-width="0.3"><path d="
M 196.00 65.00 
C 196.25 63.42 196.73 64.81 197.00 65.00
C 197.34 65.24 198.00 65.00 198.00 65.00
C 198.35 64.97 198.74 64.11 199.00 64.00
C 197.13 64.20 195.94 62.38 194.00 63.00
C 194.03 64.15 195.30 64.43 196.00 65.00 Z"/>
</g>
<g fill="None" fill-opacity="0.0" stroke="#1CB2B7" stroke-opacity="0.30" stroke-width="0.3"><path d="
M 98.00 65.00 
C 99.96 65.24 102.05 64.69 104.00 65.00
C 101.91 64.36 100.21 63.27 98.00 65.00 Z"/>
</g>
<g fill="None" fill-opacity="0.0" stroke="#2594AB" stroke-opacity="0.95" stroke-width="0.3"><path d="
M 196.00 65.00 
C 196.00 65.00 196.00 65.50 196.00 66.00
C 196.00 72.90 195.38 80.13 196.00 87.00
C 196.01 86.93 197.00 87.00 197.00 87.00
C 197.00 80.55 198.78 71.15 197.00 65.00
C 196.73 64.81 196.25 63.42 196.00 65.00 Z"/>
</g>
<g fill="None" fill-opacity="0.0" stroke="#2EADCC" stroke-opacity="0.78" stroke-width="0.3"><path d="
M 87.00 89.00 
C 87.00 88.96 88.00 89.00 88.00 89.00
C 88.00 88.50 88.00 87.50 88.00 87.00
C 88.00 82.67 88.00 78.33 88.00 74.00
C 88.00 72.47 86.85 65.36 87.00 65.00
C 88.74 72.01 87.00 81.74 87.00 89.00 Z"/>
</g>
<g fill="None" fill-opacity="0.0" stroke="#32C3E4" stroke-opacity="0.11" stroke-width="0.3"><path d="
M 97.00 74.00 
C 97.00 77.67 97.00 81.33 97.00 85.00
C 97.00 86.33 97.00 87.67 97.00 89.00
C 97.13 89.22 98.00 89.00 98.00 89.00
C 98.00 81.11 98.71 72.85 98.00 65.00
C 98.00 65.00 97.38 65.21 97.00 65.00
C 96.73 67.94 97.00 71.04 97.00 74.00 Z"/>
</g>
<g fill="None" fill-opacity="0.0" stroke="#000000" stroke-opacity="0.00" stroke-width="0.3"><path d="
M 98.00 89.00 
C 98.00 92.67 98.00 96.33 98.00 100.00
C 100.33 100.00 102.67 100.00 105.00 100.00
C 106.87 99.27 107.81 98.46 109.00 97.00
C 110.70 94.92 111.53 92.60 112.00 90.00
C 112.22 88.75 112.87 86.76 113.00 86.00
C 113.23 82.29 112.78 78.52 112.00 75.00
C 111.01 70.55 109.02 65.81 104.00 65.00
C 102.05 64.69 99.96 65.24 98.00 65.00
C 98.71 72.85 98.00 81.11 98.00 89.00 Z"/>
</g>
<g fill="None" fill-opacity="0.0" stroke="#2FCAE3" stroke-opacity="0.07" stroke-width="0.3"><path d="
M 165.00 82.00 
C 165.00 81.96 166.00 82.00 166.00 82.00
C 166.00 79.67 166.00 77.33 166.00 75.00
C 166.00 71.81 165.01 67.44 165.00 65.00
C 164.36 70.50 165.00 76.46 165.00 82.00 Z"/>
</g>
<g fill="None" fill-opacity="0.0" stroke="#2C9EBD" stroke-opacity="0.19" stroke-width="0.3"><path d="
M 197.00 87.00 
C 197.00 88.64 197.15 90.36 197.00 92.00
C 198.86 84.49 198.75 73.36 198.00 65.00
C 198.00 65.00 197.34 65.24 197.00 65.00
C 198.78 71.15 197.00 80.55 197.00 87.00 Z"/>
</g>
<g fill="None" fill-opacity="0.0" stroke="#38B2DF" stroke-opacity="1.00" stroke-width="0.3"><path d="
M 137.00 80.00 
C 137.00 83.33 137.00 86.67 137.00 90.00
C 138.17 91.65 145.60 92.45 145.92 88.92 C 146.23 85.39 145.66 79.71 146.00 76.00
C 144.79 71.46 139.34 76.31 137.00 73.00
C 137.00 75.33 137.00 77.67 137.00 80.00 Z"/>
</g>
<g fill="None" fill-opacity="0.0" stroke="#37B2DE" stroke-opacity="1.00" stroke-width="0.3"><path d="
M 88.00 87.00 
C 90.04 86.76 93.52 89.23 96.00 88.00
C 96.11 87.00 95.53 85.27 97.00 85.00
C 97.00 81.33 97.00 77.67 97.00 74.00
C 96.00 77.59 92.53 77.21 89.00 77.00
C 89.71 75.72 88.23 74.67 88.00 74.00
C 88.00 78.33 88.00 82.67 88.00 87.00 Z"/>
</g>
<g fill="None" fill-opacity="0.0" stroke="#37B3DF" stroke-opacity="0.91" stroke-width="0.3"><path d="
M 113.00 86.00 
C 112.97 86.50 113.04 87.50 113.00 88.00
C 115.44 86.50 120.61 89.32 123.00 87.00
C 123.75 83.36 124.43 79.07 123.00 75.00
C 120.23 77.35 114.58 77.99 112.00 75.00
C 112.78 78.52 113.23 82.29 113.00 86.00 Z"/>
</g>
<g fill="None" fill-opacity="0.0" stroke="#3DABE0" stroke-opacity="0.97" stroke-width="0.3"><path d="
M 166.00 82.00 
C 166.00 84.65 165.86 87.35 166.00 90.00
C 166.12 92.37 166.07 93.88 167.00 96.00
C 169.61 94.43 173.40 94.56 176.00 96.00
C 176.11 95.00 175.53 93.27 177.00 93.00
C 176.59 92.10 176.45 91.72 176.00 91.00
C 174.28 88.25 174.68 82.54 175.00 79.00
C 175.00 78.00 175.00 77.00 175.00 76.00
C 173.43 78.83 170.00 77.90 167.00 78.00
C 167.71 76.72 166.23 75.67 166.00 75.00
C 166.00 77.33 166.00 79.67 166.00 82.00 Z"/>
</g>
<g fill="None" fill-opacity="0.0" stroke="#4595DC" stroke-opacity="0.81" stroke-width="0.3"><path d="
M 137.00 90.00 
C 137.00 93.37 137.61 97.38 136.00 100.00
C 134.83 101.04 132.73 100.65 132.00 102.00
C 138.24 103.56 145.77 103.57 152.00 102.00
C 143.69 99.14 147.00 84.27 147.00 76.00
C 147.00 76.00 146.03 76.12 146.00 76.00
C 145.66 79.71 146.23 85.39 145.92 88.92 C 145.60 92.45 138.17 91.65 137.00 90.00 Z"/>
</g>
<g fill="None" fill-opacity="0.0" stroke="#38A7D7" stroke-opacity="0.81" stroke-width="0.3"><path d="
M 176.00 91.00 
C 175.11 87.53 176.00 82.61 176.00 79.00
C 176.00 79.00 175.00 79.00 175.00 79.00
C 174.68 82.54 174.28 88.25 176.00 91.00 Z"/>
</g>
<g fill="None" fill-opacity="0.0" stroke="#47B6F9" stroke-opacity="0.17" stroke-width="0.3"><path d="
M 136.00 100.00 
C 137.61 97.38 137.00 93.37 137.00 90.00
C 137.00 86.67 137.00 83.33 137.00 80.00
C 137.00 80.00 136.00 79.96 136.00 80.00
C 136.00 86.67 136.00 93.33 136.00 100.00 Z"/>
</g>
<g fill="None" fill-opacity="0.0" stroke="#40B0EA" stroke-opacity="0.06" stroke-width="0.3"><path d="
M 166.00 90.00 
C 165.86 87.35 166.00 84.65 166.00 82.00
C 166.00 82.00 165.00 81.96 165.00 82.00
C 165.00 84.88 165.64 87.75 166.00 90.00 Z"/>
</g>
<g fill="None" fill-opacity="0.0" stroke="#459CE1" stroke-opacity="1.00" stroke-width="0.3"><path d="
M 88.00 87.00 
C 88.00 87.50 88.00 88.50 88.00 89.00
C 88.00 92.62 88.33 96.40 88.00 100.00
C 90.94 102.18 94.38 100.01 97.00 100.00
C 98.21 98.27 97.00 91.21 97.00 89.00
C 97.00 87.67 97.00 86.33 97.00 85.00
C 95.53 85.27 96.11 87.00 96.00 88.00
C 93.52 89.23 90.04 86.76 88.00 87.00 Z"/>
</g>
<g fill="None" fill-opacity="0.0" stroke="#3BA9E3" stroke-opacity="0.12" stroke-width="0.3"><path d="
M 112.00 90.00 
C 112.33 89.22 112.91 89.26 113.00 88.00
C 113.04 87.50 112.97 86.50 113.00 86.00
C 112.87 86.76 112.22 88.75 112.00 90.00 Z"/>
</g>
<g fill="None" fill-opacity="0.0" stroke="#449EE2" stroke-opacity="0.84" stroke-width="0.3"><path d="
M 113.00 88.00 
C 112.91 89.26 112.33 89.22 112.00 90.00
C 111.53 92.60 110.70 94.92 109.00 97.00
C 108.99 97.07 110.28 100.56 110.00 101.00
C 117.40 98.37 121.36 94.93 123.00 87.00
C 120.61 89.32 115.44 86.50 113.00 88.00 Z"/>
</g>
<g fill="None" fill-opacity="0.0" stroke="#4891DC" stroke-opacity="0.77" stroke-width="0.3"><path d="
M 177.00 93.00 
C 175.53 93.27 176.11 95.00 176.00 96.00
C 173.40 94.56 169.61 94.43 167.00 96.00
C 172.82 109.33 193.97 104.25 197.00 92.00
C 197.15 90.36 197.00 88.64 197.00 87.00
C 197.00 87.00 196.01 86.93 196.00 87.00
C 194.86 95.43 181.99 103.91 177.00 93.00 Z"/>
</g>
<g fill="None" fill-opacity="0.0" stroke="#4092D3" stroke-opacity="0.77" stroke-width="0.3"><path d="
M 87.00 100.00 
C 87.47 99.88 88.00 100.00 88.00 100.00
C 88.33 96.40 88.00 92.62 88.00 89.00
C 88.00 89.00 87.00 88.96 87.00 89.00
C 87.00 92.62 86.67 96.40 87.00 100.00 Z"/>
</g>
<g fill="None" fill-opacity="0.0" stroke="#4796E0" stroke-opacity="0.12" stroke-width="0.3"><path d="
M 97.00 100.00 
C 100.10 99.99 101.95 101.20 105.00 100.00
C 102.67 100.00 100.33 100.00 98.00 100.00
C 98.00 96.33 98.00 92.67 98.00 89.00
C 98.00 89.00 97.13 89.22 97.00 89.00
C 97.00 91.21 98.21 98.27 97.00 100.00 Z"/>
</g>
<g fill="None" fill-opacity="0.0" stroke="#417DC5" stroke-opacity="0.49" stroke-width="0.3"><path d="
M 105.00 100.00 
C 101.95 101.20 100.10 99.99 97.00 100.00
C 94.38 100.01 90.94 102.18 88.00 100.00
C 88.00 100.00 87.47 99.88 87.00 100.00
C 85.61 101.41 82.98 100.36 82.00 102.00
C 90.91 103.71 101.79 103.92 110.00 101.00
C 110.28 100.56 108.99 97.07 109.00 97.00
C 107.81 98.46 106.87 99.27 105.00 100.00 Z"/>
</g>
<g fill="None" fill-opacity="0.0" stroke="#4A4D92" stroke-opacity="0.73" stroke-width="0.3"><path d="
M 69.00 140.00 
C 70.65 138.67 73.37 138.63 75.00 140.00
C 77.21 134.32 78.45 130.96 85.00 129.00 C 91.55 127.04 93.86 135.90 99.00 136.00
C 99.00 133.00 99.00 130.00 99.00 127.00
C 85.57 121.07 72.60 126.43 69.00 140.00 Z"/>
</g>
<g fill="None" fill-opacity="0.0" stroke="#4B4B90" stroke-opacity="0.72" stroke-width="0.3"><path d="
M 114.00 135.00 
C 115.77 136.45 118.22 135.57 120.00 137.00
C 122.35 131.27 125.94 129.48 132.00 129.00 C 138.06 128.53 138.61 136.28 144.00 136.00
C 144.00 133.00 144.00 130.00 144.00 127.00
C 133.91 122.97 119.16 123.96 114.00 135.00 Z"/>
</g>
<g fill="None" fill-opacity="0.0" stroke="#4B488E" stroke-opacity="0.78" stroke-width="0.3"><path d="
M 161.00 130.00 
C 162.23 131.45 161.93 132.96 162.00 135.00
C 163.33 135.00 164.67 135.00 166.00 135.00
C 166.00 137.00 166.00 139.00 166.00 141.00
C 166.01 140.92 167.00 141.00 167.00 141.00
C 167.40 136.62 165.25 129.05 171.01 129.01 C 176.77 128.97 179.86 129.38 181.00 135.00
C 181.02 135.10 182.00 135.00 182.00 135.00
C 183.27 134.73 184.71 135.21 186.00 135.00
C 186.39 136.57 185.06 139.22 187.00 140.00
C 191.24 121.57 167.14 124.76 155.00 125.00
C 153.55 129.83 159.39 128.11 161.00 130.00 Z"/>
</g>
<g fill="None" fill-opacity="0.0" stroke="#4A5398" stroke-opacity="0.76" stroke-width="0.3"><path d="
M 210.00 138.00 
C 211.37 137.14 212.43 137.19 213.00 139.00
C 213.77 136.63 215.90 133.91 216.00 131.00
C 218.60 132.79 217.80 137.08 220.00 139.00
C 221.26 140.02 224.28 139.42 226.00 141.00
C 225.51 135.30 221.89 130.57 221.00 125.00
C 212.41 122.67 212.14 132.74 210.00 138.00 Z"/>
</g>
<g fill="None" fill-opacity="0.0" stroke="#000000" stroke-opacity="0.00" stroke-width="0.3"><path d="
M 167.00 141.00 
C 166.50 148.26 177.58 144.95 180.00 141.00
C 180.41 140.34 180.64 139.66 181.00 139.00
C 181.25 137.96 180.46 135.90 181.00 135.00
C 179.86 129.38 176.77 128.97 171.01 129.01 C 165.25 129.05 167.40 136.62 167.00 141.00 Z"/>
</g>
<g fill="None" fill-opacity="0.0" stroke="#4F62AA" stroke-opacity="0.24" stroke-width="0.3"><path d="
M 161.00 141.00 
C 161.00 140.96 162.00 141.00 162.00 141.00
C 162.00 139.00 162.07 136.99 162.00 135.00
C 161.93 132.96 162.23 131.45 161.00 130.00
C 162.21 132.01 161.00 138.58 161.00 141.00 Z"/>
</g>
<g fill="None" fill-opacity="0.0" stroke="#000000" stroke-opacity="0.00" stroke-width="0.3"><path d="
M 213.00 139.00 
C 211.94 142.26 211.85 145.93 210.00 149.00
C 214.33 149.00 218.67 149.00 223.00 149.00
C 221.76 145.74 220.23 142.57 220.00 139.00
C 217.80 137.08 218.60 132.79 216.00 131.00
C 215.90 133.91 213.77 136.63 213.00 139.00 Z"/>
</g>
<g fill="None" fill-opacity="0.0" stroke="#406AA4" stroke-opacity="0.90" stroke-width="0.3"><path d="
M 112.00 143.00 
C 112.05 144.21 114.01 147.07 113.00 149.00
C 114.40 147.79 116.26 148.02 118.00 148.00
C 117.59 145.30 118.44 143.00 119.00 141.00
C 119.19 139.67 119.54 138.19 120.00 137.00
C 118.22 135.57 115.77 136.45 114.00 135.00
C 112.85 137.46 112.21 140.31 112.00 143.00 Z"/>
</g>
<g fill="None" fill-opacity="0.0" stroke="#42629E" stroke-opacity="1.00" stroke-width="0.3"><path d="
M 162.00 141.00 
C 162.00 141.50 162.00 142.50 162.00 143.00
C 163.66 144.45 165.77 142.46 166.00 141.00
C 166.00 139.00 166.00 137.00 166.00 135.00
C 164.67 135.00 163.33 135.00 162.00 135.00
C 162.07 136.99 162.00 139.00 162.00 141.00 Z"/>
</g>
<g fill="None" fill-opacity="0.0" stroke="#4A64A7" stroke-opacity="0.61" stroke-width="0.3"><path d="
M 181.00 139.00 
C 181.51 138.06 182.69 136.52 182.00 135.00
C 182.00 135.00 181.02 135.10 181.00 135.00
C 180.46 135.90 181.25 137.96 181.00 139.00 Z"/>
</g>
<g fill="None" fill-opacity="0.0" stroke="#4264A0" stroke-opacity="0.92" stroke-width="0.3"><path d="
M 181.00 139.00 
C 180.64 139.66 180.41 140.34 180.00 141.00
C 180.09 142.88 183.51 143.21 185.00 143.00
C 185.49 142.93 186.00 143.00 186.00 143.00
C 186.58 141.96 186.69 141.09 187.00 140.00
C 185.06 139.22 186.39 136.57 186.00 135.00
C 184.71 135.21 183.27 134.73 182.00 135.00
C 182.69 136.52 181.51 138.06 181.00 139.00 Z"/>
</g>
<g fill="None" fill-opacity="0.0" stroke="#3979AC" stroke-opacity="0.85" stroke-width="0.3"><path d="
M 210.00 138.00 
C 208.08 142.71 205.85 147.99 204.00 153.00
C 204.14 154.71 206.07 156.56 207.00 158.00
C 207.00 158.27 207.93 154.15 208.00 154.00
C 210.40 148.53 222.40 153.60 225.00 154.00
C 227.08 154.32 229.25 154.05 231.00 153.00
C 229.47 148.97 227.42 144.75 226.00 141.00
C 224.28 139.42 221.26 140.02 220.00 139.00
C 220.23 142.57 221.76 145.74 223.00 149.00
C 218.67 149.00 214.33 149.00 210.00 149.00
C 211.85 145.93 211.94 142.26 213.00 139.00
C 212.43 137.19 211.37 137.14 210.00 138.00 Z"/>
</g>
<g fill="None" fill-opacity="0.0" stroke="#3C6EA4" stroke-opacity="0.96" stroke-width="0.3"><path d="
M 69.00 140.00 
C 68.82 140.67 68.14 140.85 68.00 142.00
C 68.24 144.43 69.00 147.90 69.00 151.00
C 69.36 148.95 71.49 147.25 74.00 148.00
C 73.52 145.68 73.80 142.63 75.00 141.00
C 75.00 141.00 74.82 140.43 75.00 140.00
C 73.37 138.63 70.65 138.67 69.00 140.00 Z"/>
</g>
<g fill="None" fill-opacity="0.0" stroke="#3F7AB3" stroke-opacity="0.65" stroke-width="0.3"><path d="
M 74.00 148.00 
C 74.07 148.35 74.89 148.74 75.00 149.00
C 74.66 146.44 75.00 143.59 75.00 141.00
C 73.80 142.63 73.52 145.68 74.00 148.00 Z"/>
</g>
<g fill="None" fill-opacity="0.0" stroke="#4381BE" stroke-opacity="0.30" stroke-width="0.3"><path d="
M 118.00 148.00 
C 118.21 149.41 118.60 149.05 119.00 150.00
C 118.65 147.35 118.63 143.65 119.00 141.00
C 118.44 143.00 117.59 145.30 118.00 148.00 Z"/>
</g>
<g fill="None" fill-opacity="0.0" stroke="#3E90C5" stroke-opacity="0.29" stroke-width="0.3"><path d="
M 161.00 160.00 
C 162.47 158.16 161.95 155.49 162.00 153.00
C 162.07 149.67 162.00 146.33 162.00 143.00
C 162.00 142.50 162.00 141.50 162.00 141.00
C 162.00 141.00 161.00 140.96 161.00 141.00
C 161.00 147.33 161.00 153.67 161.00 160.00 Z"/>
</g>
<g fill="None" fill-opacity="0.0" stroke="#3A79AD" stroke-opacity="0.84" stroke-width="0.3"><path d="
M 162.00 143.00 
C 162.00 146.33 162.07 149.67 162.00 153.00
C 163.62 152.99 165.73 152.80 167.00 154.00
C 166.84 144.85 176.55 150.07 183.00 146.00
C 183.80 145.30 184.27 143.66 185.00 143.00
C 183.51 143.21 180.09 142.88 180.00 141.00
C 177.58 144.95 166.50 148.26 167.00 141.00
C 167.00 141.00 166.01 140.92 166.00 141.00
C 165.77 142.46 163.66 144.45 162.00 143.00 Z"/>
</g>
<g fill="None" fill-opacity="0.0" stroke="#3C7EB4" stroke-opacity="0.39" stroke-width="0.3"><path d="
M 69.00 152.00 
C 68.98 151.50 69.00 151.00 69.00 151.00
C 69.00 147.90 68.24 144.43 68.00 142.00
C 67.57 145.52 68.37 149.15 69.00 152.00 Z"/>
</g>
<g fill="None" fill-opacity="0.0" stroke="#3489B6" stroke-opacity="0.86" stroke-width="0.3"><path d="
M 114.00 157.00 
C 115.95 158.66 119.41 157.46 122.00 159.00
C 121.52 158.52 121.22 157.61 121.00 157.00
C 120.17 154.76 119.92 152.16 119.00 150.00
C 118.60 149.05 118.21 149.41 118.00 148.00
C 116.26 148.02 114.40 147.79 113.00 149.00
C 114.01 147.07 112.05 144.21 112.00 143.00
C 111.63 147.69 111.67 152.99 114.00 157.00 Z"/>
</g>
<g fill="None" fill-opacity="0.0" stroke="#3F78B3" stroke-opacity="0.09" stroke-width="0.3"><path d="
M 183.00 146.00 
C 184.30 145.18 185.21 144.42 186.00 143.00
C 186.00 143.00 185.49 142.93 185.00 143.00
C 184.27 143.66 183.80 145.30 183.00 146.00 Z"/>
</g>
<g fill="None" fill-opacity="0.0" stroke="#3583B1" stroke-opacity="0.86" stroke-width="0.3"><path d="
M 139.00 153.00 
C 139.84 154.30 140.08 155.14 140.00 157.00
C 141.39 154.99 144.36 156.42 145.00 158.00
C 145.00 154.33 145.00 150.67 145.00 147.00
C 141.00 147.00 137.00 147.00 133.00 147.00
C 132.49 151.72 137.34 150.43 139.00 153.00 Z"/>
</g>
<g fill="None" fill-opacity="0.0" stroke="#2D97BB" stroke-opacity="0.79" stroke-width="0.3"><path d="
M 69.00 151.00 
C 69.00 151.00 68.98 151.50 69.00 152.00
C 69.29 159.54 75.50 163.39 82.00 165.00
C 85.43 165.43 89.55 165.23 93.00 165.00
C 105.49 164.15 98.36 156.86 89.67 161.67 C 80.98 166.48 76.96 153.71 75.00 149.00
C 74.89 148.74 74.07 148.35 74.00 148.00
C 71.49 147.25 69.36 148.95 69.00 151.00 Z"/>
</g>
<g fill="None" fill-opacity="0.0" stroke="#3789B8" stroke-opacity="0.14" stroke-width="0.3"><path d="
M 208.00 154.00 
C 209.48 151.78 223.24 152.16 225.00 154.00
C 222.40 153.60 210.40 148.53 208.00 154.00 Z"/>
</g>
<g fill="None" fill-opacity="0.0" stroke="#35A0CD" stroke-opacity="0.26" stroke-width="0.3"><path d="
M 139.00 160.00 
C 139.94 159.00 139.93 158.54 140.00 157.00
C 140.08 155.14 139.84 154.30 139.00 153.00
C 139.39 153.96 139.47 159.10 139.00 160.00 Z"/>
</g>
<g fill="None" fill-opacity="0.0" stroke="#2C9ABE" stroke-opacity="0.91" stroke-width="0.3"><path d="
M 161.00 160.00 
C 159.83 161.47 154.24 160.37 156.00 164.00
C 161.24 162.81 170.17 166.47 173.00 162.00
C 172.22 160.06 169.57 161.39 168.00 161.00
C 169.00 158.64 167.03 155.99 167.00 154.00
C 165.73 152.80 163.62 152.99 162.00 153.00
C 161.95 155.49 162.47 158.16 161.00 160.00 Z"/>
</g>
<g fill="None" fill-opacity="0.0" stroke="#2B99BB" stroke-opacity="0.70" stroke-width="0.3"><path d="
M 207.00 158.00 
C 206.07 156.56 204.14 154.71 204.00 153.00
C 203.82 159.27 196.13 159.95 196.00 165.00
C 200.67 165.00 205.33 165.00 210.00 165.00
C 209.90 161.81 208.42 160.20 207.00 158.00 Z"/>
</g>
<g fill="None" fill-opacity="0.0" stroke="#2B97BB" stroke-opacity="0.72" stroke-width="0.3"><path d="
M 225.00 154.00 
C 225.43 157.28 227.27 161.12 223.00 162.00
C 224.77 168.06 234.09 163.66 239.00 165.00
C 236.81 160.50 233.11 158.58 231.00 153.00
C 229.25 154.05 227.08 154.32 225.00 154.00 Z"/>
</g>
<g fill="None" fill-opacity="0.0" stroke="#299FC2" stroke-opacity="0.76" stroke-width="0.3"><path d="
M 140.00 157.00 
C 139.93 158.54 139.94 159.00 139.00 160.00
C 135.57 163.66 128.07 161.50 124.00 160.00
C 123.41 159.78 122.52 159.31 122.00 159.00
C 119.41 157.46 115.95 158.66 114.00 157.00
C 119.60 166.64 143.96 171.65 145.00 158.00
C 144.36 156.42 141.39 154.99 140.00 157.00 Z"/>
</g>
<g fill="None" fill-opacity="0.0" stroke="#30A1CA" stroke-opacity="0.34" stroke-width="0.3"><path d="
M 122.00 159.00 
C 122.52 159.31 123.41 159.78 124.00 160.00
C 123.66 159.77 121.27 157.40 121.00 157.00
C 121.22 157.61 121.52 158.52 122.00 159.00 Z"/>
</g>
<g fill="None" fill-opacity="0.0" stroke="#27B3CF" stroke-opacity="0.11" stroke-width="0.3"><path d="
M 156.00 164.00 
C 157.15 166.37 175.97 166.24 173.00 162.00
C 170.17 166.47 161.24 162.81 156.00 164.00 Z"/>
</g>
<g fill="None" fill-opacity="0.0" stroke="#22A3C1" stroke-opacity="0.11" stroke-width="0.3"><path d="
M 93.00 165.00 
C 89.55 165.23 85.43 165.43 82.00 165.00
C 85.76 165.93 89.23 165.68 93.00 165.00 Z"/>
</g>
<g fill="#000000" fill-opacity="0.00" stroke="None">
<path d="
M 0.00 232.00 
L 315.00 232.00
L 315.00 0.00
L 0.00 0.00
L 0.00 232.00
M 107.00 63.00 
C 113.99 64.45 120.39 67.58 123.00 75.00
C 124.43 79.07 123.75 83.36 123.00 87.00
C 121.36 94.93 117.40 98.37 110.00 101.00
C 101.79 103.92 90.91 103.71 82.00 102.00
C 82.98 100.36 85.61 101.41 87.00 100.00
C 86.67 96.40 87.00 92.62 87.00 89.00
C 87.00 81.74 88.74 72.01 87.00 65.00
C 86.77 64.09 83.68 63.55 84.00 62.00
C 91.50 62.66 100.33 60.67 107.00 63.00
M 147.00 76.00 
C 147.00 84.27 143.69 99.14 152.00 102.00
C 145.77 103.57 138.24 103.56 132.00 102.00
C 132.73 100.65 134.83 101.04 136.00 100.00
C 136.00 93.33 136.00 86.67 136.00 80.00
C 136.00 75.19 134.48 68.23 135.00 64.00
C 135.47 60.16 143.20 62.74 148.00 62.00
C 146.92 66.45 146.84 71.22 147.00 76.00
M 176.00 79.00 
C 176.00 82.61 175.11 87.53 176.00 91.00
C 176.45 91.72 176.59 92.10 177.00 93.00
C 181.99 103.91 194.86 95.43 196.00 87.00
C 195.38 80.13 196.00 72.90 196.00 66.00
C 193.86 64.69 191.33 64.06 190.00 62.00
C 194.00 62.00 198.00 62.00 202.00 62.00
C 201.56 63.29 200.42 64.21 199.00 64.00
C 198.74 64.11 198.35 64.97 198.00 65.00
C 198.75 73.36 198.86 84.49 197.00 92.00
C 193.97 104.25 172.82 109.33 167.00 96.00
C 166.07 93.88 166.12 92.37 166.00 90.00
C 165.64 87.75 165.00 84.88 165.00 82.00
C 165.00 76.46 164.36 70.50 165.00 65.00
C 165.10 64.14 163.29 63.12 164.00 62.00
C 168.63 62.48 173.80 60.92 178.00 63.00
C 174.20 67.28 176.74 73.71 176.00 79.00
M 75.00 140.00 
C 74.82 140.43 75.00 141.00 75.00 141.00
C 75.00 143.59 74.66 146.44 75.00 149.00
C 76.96 153.71 80.98 166.48 89.67 161.67 C 98.36 156.86 105.49 164.15 93.00 165.00
C 89.23 165.68 85.76 165.93 82.00 165.00
C 75.50 163.39 69.29 159.54 69.00 152.00
C 68.37 149.15 67.57 145.52 68.00 142.00
C 68.14 140.85 68.82 140.67 69.00 140.00
C 72.60 126.43 85.57 121.07 99.00 127.00
C 99.00 130.00 99.00 133.00 99.00 136.00
C 93.86 135.90 91.55 127.04 85.00 129.00 C 78.45 130.96 77.21 134.32 75.00 140.00
M 120.00 137.00 
C 119.54 138.19 119.19 139.67 119.00 141.00
C 118.63 143.65 118.65 147.35 119.00 150.00
C 119.92 152.16 120.17 154.76 121.00 157.00
C 121.27 157.40 123.66 159.77 124.00 160.00
C 128.07 161.50 135.57 163.66 139.00 160.00
C 139.47 159.10 139.39 153.96 139.00 153.00
C 137.34 150.43 132.49 151.72 133.00 147.00
C 137.00 147.00 141.00 147.00 145.00 147.00
C 145.00 150.67 145.00 154.33 145.00 158.00
C 143.96 171.65 119.60 166.64 114.00 157.00
C 111.67 152.99 111.63 147.69 112.00 143.00
C 112.21 140.31 112.85 137.46 114.00 135.00
C 119.16 123.96 133.91 122.97 144.00 127.00
C 144.00 130.00 144.00 133.00 144.00 136.00
C 138.61 136.28 138.06 128.53 132.00 129.00 C 125.94 129.48 122.35 131.27 120.00 137.00
M 187.00 140.00 
C 186.69 141.09 186.58 141.96 186.00 143.00
C 185.21 144.42 184.30 145.18 183.00 146.00
C 176.55 150.07 166.84 144.85 167.00 154.00
C 167.03 155.99 169.00 158.64 168.00 161.00
C 169.57 161.39 172.22 160.06 173.00 162.00
C 175.97 166.24 157.15 166.37 156.00 164.00
C 154.24 160.37 159.83 161.47 161.00 160.00
C 161.00 153.67 161.00 147.33 161.00 141.00
C 161.00 138.58 162.21 132.01 161.00 130.00
C 159.39 128.11 153.55 129.83 155.00 125.00
C 167.14 124.76 191.24 121.57 187.00 140.00
M 226.00 141.00 
C 227.42 144.75 229.47 148.97 231.00 153.00
C 233.11 158.58 236.81 160.50 239.00 165.00
C 234.09 163.66 224.77 168.06 223.00 162.00
C 227.27 161.12 225.43 157.28 225.00 154.00
C 223.24 152.16 209.48 151.78 208.00 154.00
C 207.93 154.15 207.00 158.27 207.00 158.00
C 208.42 160.20 209.90 161.81 210.00 165.00
C 205.33 165.00 200.67 165.00 196.00 165.00
C 196.13 159.95 203.82 159.27 204.00 153.00
C 205.85 147.99 208.08 142.71 210.00 138.00
C 212.14 132.74 212.41 122.67 221.00 125.00
C 221.89 130.57 225.51 135.30 226.00 141.00 Z"/>
</g>
<g fill="#1FC4C9" fill-opacity="0.16" stroke="None">
<path d="
M 87.00 65.00 
C 88.19 62.15 91.47 63.10 94.00 63.00
C 98.22 62.84 102.80 62.62 107.00 63.00
C 100.33 60.67 91.50 62.66 84.00 62.00
C 83.68 63.55 86.77 64.09 87.00 65.00 Z"/>
</g>
<g fill="#26C6D5" fill-opacity="0.86" stroke="None">
<path d="
M 135.00 64.00 
C 137.63 63.21 137.00 70.45 137.00 73.00
C 139.34 76.31 144.79 71.46 146.00 76.00
C 146.03 76.12 147.00 76.00 147.00 76.00
C 146.84 71.22 146.92 66.45 148.00 62.00
C 143.20 62.74 135.47 60.16 135.00 64.00 Z"/>
</g>
<g fill="#28C4D6" fill-opacity="0.89" stroke="None">
<path d="
M 165.00 65.00 
C 165.01 67.44 166.00 71.81 166.00 75.00
C 166.23 75.67 167.71 76.72 167.00 78.00
C 170.00 77.90 173.43 78.83 175.00 76.00
C 175.00 77.00 175.00 78.00 175.00 79.00
C 175.00 79.00 176.00 79.00 176.00 79.00
C 176.74 73.71 174.20 67.28 178.00 63.00
C 173.80 60.92 168.63 62.48 164.00 62.00
C 163.29 63.12 165.10 64.14 165.00 65.00 Z"/>
</g>
<g fill="#19A4AA" fill-opacity="0.18" stroke="None">
<path d="
M 196.00 66.00 
C 196.00 65.50 196.00 65.00 196.00 65.00
C 195.30 64.43 194.03 64.15 194.00 63.00
C 195.94 62.38 197.13 64.20 199.00 64.00
C 200.42 64.21 201.56 63.29 202.00 62.00
C 198.00 62.00 194.00 62.00 190.00 62.00
C 191.33 64.06 193.86 64.69 196.00 66.00 Z"/>
</g>
<g fill="#29C6D9" fill-opacity="1.00" stroke="None">
<path d="
M 87.00 65.00 
C 86.85 65.36 88.00 72.47 88.00 74.00
C 88.23 74.67 89.71 75.72 89.00 77.00
C 92.53 77.21 96.00 77.59 97.00 74.00
C 97.00 71.04 96.73 67.94 97.00 65.00
C 96.39 64.66 94.59 63.14 94.00 63.00
C 91.47 63.10 88.19 62.15 87.00 65.00 Z"/>
</g>
<g fill="#28C3D4" fill-opacity="0.81" stroke="None">
<path d="
M 97.00 65.00 
C 97.38 65.21 98.00 65.00 98.00 65.00
C 100.21 63.27 101.91 64.36 104.00 65.00
C 109.02 65.81 111.01 70.55 112.00 75.00
C 114.58 77.99 120.23 77.35 123.00 75.00
C 120.39 67.58 113.99 64.45 107.00 63.00
C 102.80 62.62 98.22 62.84 94.00 63.00
C 94.59 63.14 96.39 64.66 97.00 65.00 Z"/>
</g>
<g fill="#2ED8F0" fill-opacity="0.17" stroke="None">
<path d="
M 135.00 64.00 
C 134.48 68.23 136.00 75.19 136.00 80.00
C 136.00 79.96 137.00 80.00 137.00 80.00
C 137.00 77.67 137.00 75.33 137.00 73.00
C 137.00 70.45 137.63 63.21 135.00 64.00 Z"/>
</g>
<g fill="#1ABBBF" fill-opacity="0.47" stroke="None">
<path d="
M 196.00 65.00 
C 196.25 63.42 196.73 64.81 197.00 65.00
C 197.34 65.24 198.00 65.00 198.00 65.00
C 198.35 64.97 198.74 64.11 199.00 64.00
C 197.13 64.20 195.94 62.38 194.00 63.00
C 194.03 64.15 195.30 64.43 196.00 65.00 Z"/>
</g>
<g fill="#1CB2B7" fill-opacity="0.30" stroke="None">
<path d="
M 98.00 65.00 
C 99.96 65.24 102.05 64.69 104.00 65.00
C 101.91 64.36 100.21 63.27 98.00 65.00 Z"/>
</g>
<g fill="#2594AB" fill-opacity="0.95" stroke="None">
<path d="
M 196.00 65.00 
C 196.00 65.00 196.00 65.50 196.00 66.00
C 196.00 72.90 195.38 80.13 196.00 87.00
C 196.01 86.93 197.00 87.00 197.00 87.00
C 197.00 80.55 198.78 71.15 197.00 65.00
C 196.73 64.81 196.25 63.42 196.00 65.00 Z"/>
</g>
<g fill="#2EADCC" fill-opacity="0.78" stroke="None">
<path d="
M 87.00 89.00 
C 87.00 88.96 88.00 89.00 88.00 89.00
C 88.00 88.50 88.00 87.50 88.00 87.00
C 88.00 82.67 88.00 78.33 88.00 74.00
C 88.00 72.47 86.85 65.36 87.00 65.00
C 88.74 72.01 87.00 81.74 87.00 89.00 Z"/>
</g>
<g fill="#32C3E4" fill-opacity="0.11" stroke="None">
<path d="
M 97.00 74.00 
C 97.00 77.67 97.00 81.33 97.00 85.00
C 97.00 86.33 97.00 87.67 97.00 89.00
C 97.13 89.22 98.00 89.00 98.00 89.00
C 98.00 81.11 98.71 72.85 98.00 65.00
C 98.00 65.00 97.38 65.21 97.00 65.00
C 96.73 67.94 97.00 71.04 97.00 74.00 Z"/>
</g>
<g fill="#000000" fill-opacity="0.00" stroke="None">
<path d="
M 98.00 89.00 
C 98.00 92.67 98.00 96.33 98.00 100.00
C 100.33 100.00 102.67 100.00 105.00 100.00
C 106.87 99.27 107.81 98.46 109.00 97.00
C 110.70 94.92 111.53 92.60 112.00 90.00
C 112.22 88.75 112.87 86.76 113.00 86.00
C 113.23 82.29 112.78 78.52 112.00 75.00
C 111.01 70.55 109.02 65.81 104.00 65.00
C 102.05 64.69 99.96 65.24 98.00 65.00
C 98.71 72.85 98.00 81.11 98.00 89.00 Z"/>
</g>
<g fill="#2FCAE3" fill-opacity="0.07" stroke="None">
<path d="
M 165.00 82.00 
C 165.00 81.96 166.00 82.00 166.00 82.00
C 166.00 79.67 166.00 77.33 166.00 75.00
C 166.00 71.81 165.01 67.44 165.00 65.00
C 164.36 70.50 165.00 76.46 165.00 82.00 Z"/>
</g>
<g fill="#2C9EBD" fill-opacity="0.19" stroke="None">
<path d="
M 197.00 87.00 
C 197.00 88.64 197.15 90.36 197.00 92.00
C 198.86 84.49 198.75 73.36 198.00 65.00
C 198.00 65.00 197.34 65.24 197.00 65.00
C 198.78 71.15 197.00 80.55 197.00 87.00 Z"/>
</g>
<g fill="#38B2DF" fill-opacity="1.00" stroke="None">
<path d="
M 137.00 80.00 
C 137.00 83.33 137.00 86.67 137.00 90.00
C 138.17 91.65 145.60 92.45 145.92 88.92 C 146.23 85.39 145.66 79.71 146.00 76.00
C 144.79 71.46 139.34 76.31 137.00 73.00
C 137.00 75.33 137.00 77.67 137.00 80.00 Z"/>
</g>
<g fill="#37B2DE" fill-opacity="1.00" stroke="None">
<path d="
M 88.00 87.00 
C 90.04 86.76 93.52 89.23 96.00 88.00
C 96.11 87.00 95.53 85.27 97.00 85.00
C 97.00 81.33 97.00 77.67 97.00 74.00
C 96.00 77.59 92.53 77.21 89.00 77.00
C 89.71 75.72 88.23 74.67 88.00 74.00
C 88.00 78.33 88.00 82.67 88.00 87.00 Z"/>
</g>
<g fill="#37B3DF" fill-opacity="0.91" stroke="None">
<path d="
M 113.00 86.00 
C 112.97 86.50 113.04 87.50 113.00 88.00
C 115.44 86.50 120.61 89.32 123.00 87.00
C 123.75 83.36 124.43 79.07 123.00 75.00
C 120.23 77.35 114.58 77.99 112.00 75.00
C 112.78 78.52 113.23 82.29 113.00 86.00 Z"/>
</g>
<g fill="#3DABE0" fill-opacity="0.97" stroke="None">
<path d="
M 166.00 82.00 
C 166.00 84.65 165.86 87.35 166.00 90.00
C 166.12 92.37 166.07 93.88 167.00 96.00
C 169.61 94.43 173.40 94.56 176.00 96.00
C 176.11 95.00 175.53 93.27 177.00 93.00
C 176.59 92.10 176.45 91.72 176.00 91.00
C 174.28 88.25 174.68 82.54 175.00 79.00
C 175.00 78.00 175.00 77.00 175.00 76.00
C 173.43 78.83 170.00 77.90 167.00 78.00
C 167.71 76.72 166.23 75.67 166.00 75.00
C 166.00 77.33 166.00 79.67 166.00 82.00 Z"/>
</g>
<g fill="#4595DC" fill-opacity="0.81" stroke="None">
<path d="
M 137.00 90.00 
C 137.00 93.37 137.61 97.38 136.00 100.00
C 134.83 101.04 132.73 100.65 132.00 102.00
C 138.24 103.56 145.77 103.57 152.00 102.00
C 143.69 99.14 147.00 84.27 147.00 76.00
C 147.00 76.00 146.03 76.12 146.00 76.00
C 145.66 79.71 146.23 85.39 145.92 88.92 C 145.60 92.45 138.17 91.65 137.00 90.00 Z"/>
</g>
<g fill="#38A7D7" fill-opacity="0.81" stroke="None">
<path d="
M 176.00 91.00 
C 175.11 87.53 176.00 82.61 176.00 79.00
C 176.00 79.00 175.00 79.00 175.00 79.00
C 174.68 82.54 174.28 88.25 176.00 91.00 Z"/>
</g>
<g fill="#47B6F9" fill-opacity="0.17" stroke="None">
<path d="
M 136.00 100.00 
C 137.61 97.38 137.00 93.37 137.00 90.00
C 137.00 86.67 137.00 83.33 137.00 80.00
C 137.00 80.00 136.00 79.96 136.00 80.00
C 136.00 86.67 136.00 93.33 136.00 100.00 Z"/>
</g>
<g fill="#40B0EA" fill-opacity="0.06" stroke="None">
<path d="
M 166.00 90.00 
C 165.86 87.35 166.00 84.65 166.00 82.00
C 166.00 82.00 165.00 81.96 165.00 82.00
C 165.00 84.88 165.64 87.75 166.00 90.00 Z"/>
</g>
<g fill="#459CE1" fill-opacity="1.00" stroke="None">
<path d="
M 88.00 87.00 
C 88.00 87.50 88.00 88.50 88.00 89.00
C 88.00 92.62 88.33 96.40 88.00 100.00
C 90.94 102.18 94.38 100.01 97.00 100.00
C 98.21 98.27 97.00 91.21 97.00 89.00
C 97.00 87.67 97.00 86.33 97.00 85.00
C 95.53 85.27 96.11 87.00 96.00 88.00
C 93.52 89.23 90.04 86.76 88.00 87.00 Z"/>
</g>
<g fill="#3BA9E3" fill-opacity="0.12" stroke="None">
<path d="
M 112.00 90.00 
C 112.33 89.22 112.91 89.26 113.00 88.00
C 113.04 87.50 112.97 86.50 113.00 86.00
C 112.87 86.76 112.22 88.75 112.00 90.00 Z"/>
</g>
<g fill="#449EE2" fill-opacity="0.84" stroke="None">
<path d="
M 113.00 88.00 
C 112.91 89.26 112.33 89.22 112.00 90.00
C 111.53 92.60 110.70 94.92 109.00 97.00
C 108.99 97.07 110.28 100.56 110.00 101.00
C 117.40 98.37 121.36 94.93 123.00 87.00
C 120.61 89.32 115.44 86.50 113.00 88.00 Z"/>
</g>
<g fill="#4891DC" fill-opacity="0.77" stroke="None">
<path d="
M 177.00 93.00 
C 175.53 93.27 176.11 95.00 176.00 96.00
C 173.40 94.56 169.61 94.43 167.00 96.00
C 172.82 109.33 193.97 104.25 197.00 92.00
C 197.15 90.36 197.00 88.64 197.00 87.00
C 197.00 87.00 196.01 86.93 196.00 87.00
C 194.86 95.43 181.99 103.91 177.00 93.00 Z"/>
</g>
<g fill="#4092D3" fill-opacity="0.77" stroke="None">
<path d="
M 87.00 100.00 
C 87.47 99.88 88.00 100.00 88.00 100.00
C 88.33 96.40 88.00 92.62 88.00 89.00
C 88.00 89.00 87.00 88.96 87.00 89.00
C 87.00 92.62 86.67 96.40 87.00 100.00 Z"/>
</g>
<g fill="#4796E0" fill-opacity="0.12" stroke="None">
<path d="
M 97.00 100.00 
C 100.10 99.99 101.95 101.20 105.00 100.00
C 102.67 100.00 100.33 100.00 98.00 100.00
C 98.00 96.33 98.00 92.67 98.00 89.00
C 98.00 89.00 97.13 89.22 97.00 89.00
C 97.00 91.21 98.21 98.27 97.00 100.00 Z"/>
</g>
<g fill="#417DC5" fill-opacity="0.49" stroke="None">
<path d="
M 105.00 100.00 
C 101.95 101.20 100.10 99.99 97.00 100.00
C 94.38 100.01 90.94 102.18 88.00 100.00
C 88.00 100.00 87.47 99.88 87.00 100.00
C 85.61 101.41 82.98 100.36 82.00 102.00
C 90.91 103.71 101.79 103.92 110.00 101.00
C 110.28 100.56 108.99 97.07 109.00 97.00
C 107.81 98.46 106.87 99.27 105.00 100.00 Z"/>
</g>
<g fill="#4A4D92" fill-opacity="0.73" stroke="None">
<path d="
M 69.00 140.00 
C 70.65 138.67 73.37 138.63 75.00 140.00
C 77.21 134.32 78.45 130.96 85.00 129.00 C 91.55 127.04 93.86 135.90 99.00 136.00
C 99.00 133.00 99.00 130.00 99.00 127.00
C 85.57 121.07 72.60 126.43 69.00 140.00 Z"/>
</g>
<g fill="#4B4B90" fill-opacity="0.72" stroke="None">
<path d="
M 114.00 135.00 
C 115.77 136.45 118.22 135.57 120.00 137.00
C 122.35 131.27 125.94 129.48 132.00 129.00 C 138.06 128.53 138.61 136.28 144.00 136.00
C 144.00 133.00 144.00 130.00 144.00 127.00
C 133.91 122.97 119.16 123.96 114.00 135.00 Z"/>
</g>
<g fill="#4B488E" fill-opacity="0.78" stroke="None">
<path d="
M 161.00 130.00 
C 162.23 131.45 161.93 132.96 162.00 135.00
C 163.33 135.00 164.67 135.00 166.00 135.00
C 166.00 137.00 166.00 139.00 166.00 141.00
C 166.01 140.92 167.00 141.00 167.00 141.00
C 167.40 136.62 165.25 129.05 171.01 129.01 C 176.77 128.97 179.86 129.38 181.00 135.00
C 181.02 135.10 182.00 135.00 182.00 135.00
C 183.27 134.73 184.71 135.21 186.00 135.00
C 186.39 136.57 185.06 139.22 187.00 140.00
C 191.24 121.57 167.14 124.76 155.00 125.00
C 153.55 129.83 159.39 128.11 161.00 130.00 Z"/>
</g>
<g fill="#4A5398" fill-opacity="0.76" stroke="None">
<path d="
M 210.00 138.00 
C 211.37 137.14 212.43 137.19 213.00 139.00
C 213.77 136.63 215.90 133.91 216.00 131.00
C 218.60 132.79 217.80 137.08 220.00 139.00
C 221.26 140.02 224.28 139.42 226.00 141.00
C 225.51 135.30 221.89 130.57 221.00 125.00
C 212.41 122.67 212.14 132.74 210.00 138.00 Z"/>
</g>
<g fill="#000000" fill-opacity="0.00" stroke="None">
<path d="
M 167.00 141.00 
C 166.50 148.26 177.58 144.95 180.00 141.00
C 180.41 140.34 180.64 139.66 181.00 139.00
C 181.25 137.96 180.46 135.90 181.00 135.00
C 179.86 129.38 176.77 128.97 171.01 129.01 C 165.25 129.05 167.40 136.62 167.00 141.00 Z"/>
</g>
<g fill="#4F62AA" fill-opacity="0.24" stroke="None">
<path d="
M 161.00 141.00 
C 161.00 140.96 162.00 141.00 162.00 141.00
C 162.00 139.00 162.07 136.99 162.00 135.00
C 161.93 132.96 162.23 131.45 161.00 130.00
C 162.21 132.01 161.00 138.58 161.00 141.00 Z"/>
</g>
<g fill="#000000" fill-opacity="0.00" stroke="None">
<path d="
M 213.00 139.00 
C 211.94 142.26 211.85 145.93 210.00 149.00
C 214.33 149.00 218.67 149.00 223.00 149.00
C 221.76 145.74 220.23 142.57 220.00 139.00
C 217.80 137.08 218.60 132.79 216.00 131.00
C 215.90 133.91 213.77 136.63 213.00 139.00 Z"/>
</g>
<g fill="#406AA4" fill-opacity="0.90" stroke="None">
<path d="
M 112.00 143.00 
C 112.05 144.21 114.01 147.07 113.00 149.00
C 114.40 147.79 116.26 148.02 118.00 148.00
C 117.59 145.30 118.44 143.00 119.00 141.00
C 119.19 139.67 119.54 138.19 120.00 137.00
C 118.22 135.57 115.77 136.45 114.00 135.00
C 112.85 137.46 112.21 140.31 112.00 143.00 Z"/>
</g>
<g fill="#42629E" fill-opacity="1.00" stroke="None">
<path d="
M 162.00 141.00 
C 162.00 141.50 162.00 142.50 162.00 143.00
C 163.66 144.45 165.77 142.46 166.00 141.00
C 166.00 139.00 166.00 137.00 166.00 135.00
C 164.67 135.00 163.33 135.00 162.00 135.00
C 162.07 136.99 162.00 139.00 162.00 141.00 Z"/>
</g>
<g fill="#4A64A7" fill-opacity="0.61" stroke="None">
<path d="
M 181.00 139.00 
C 181.51 138.06 182.69 136.52 182.00 135.00
C 182.00 135.00 181.02 135.10 181.00 135.00
C 180.46 135.90 181.25 137.96 181.00 139.00 Z"/>
</g>
<g fill="#4264A0" fill-opacity="0.92" stroke="None">
<path d="
M 181.00 139.00 
C 180.64 139.66 180.41 140.34 180.00 141.00
C 180.09 142.88 183.51 143.21 185.00 143.00
C 185.49 142.93 186.00 143.00 186.00 143.00
C 186.58 141.96 186.69 141.09 187.00 140.00
C 185.06 139.22 186.39 136.57 186.00 135.00
C 184.71 135.21 183.27 134.73 182.00 135.00
C 182.69 136.52 181.51 138.06 181.00 139.00 Z"/>
</g>
<g fill="#3979AC" fill-opacity="0.85" stroke="None">
<path d="
M 210.00 138.00 
C 208.08 142.71 205.85 147.99 204.00 153.00
C 204.14 154.71 206.07 156.56 207.00 158.00
C 207.00 158.27 207.93 154.15 208.00 154.00
C 210.40 148.53 222.40 153.60 225.00 154.00
C 227.08 154.32 229.25 154.05 231.00 153.00
C 229.47 148.97 227.42 144.75 226.00 141.00
C 224.28 139.42 221.26 140.02 220.00 139.00
C 220.23 142.57 221.76 145.74 223.00 149.00
C 218.67 149.00 214.33 149.00 210.00 149.00
C 211.85 145.93 211.94 142.26 213.00 139.00
C 212.43 137.19 211.37 137.14 210.00 138.00 Z"/>
</g>
<g fill="#3C6EA4" fill-opacity="0.96" stroke="None">
<path d="
M 69.00 140.00 
C 68.82 140.67 68.14 140.85 68.00 142.00
C 68.24 144.43 69.00 147.90 69.00 151.00
C 69.36 148.95 71.49 147.25 74.00 148.00
C 73.52 145.68 73.80 142.63 75.00 141.00
C 75.00 141.00 74.82 140.43 75.00 140.00
C 73.37 138.63 70.65 138.67 69.00 140.00 Z"/>
</g>
<g fill="#3F7AB3" fill-opacity="0.65" stroke="None">
<path d="
M 74.00 148.00 
C 74.07 148.35 74.89 148.74 75.00 149.00
C 74.66 146.44 75.00 143.59 75.00 141.00
C 73.80 142.63 73.52 145.68 74.00 148.00 Z"/>
</g>
<g fill="#4381BE" fill-opacity="0.30" stroke="None">
<path d="
M 118.00 148.00 
C 118.21 149.41 118.60 149.05 119.00 150.00
C 118.65 147.35 118.63 143.65 119.00 141.00
C 118.44 143.00 117.59 145.30 118.00 148.00 Z"/>
</g>
<g fill="#3E90C5" fill-opacity="0.29" stroke="None">
<path d="
M 161.00 160.00 
C 162.47 158.16 161.95 155.49 162.00 153.00
C 162.07 149.67 162.00 146.33 162.00 143.00
C 162.00 142.50 162.00 141.50 162.00 141.00
C 162.00 141.00 161.00 140.96 161.00 141.00
C 161.00 147.33 161.00 153.67 161.00 160.00 Z"/>
</g>
<g fill="#3A79AD" fill-opacity="0.84" stroke="None">
<path d="
M 162.00 143.00 
C 162.00 146.33 162.07 149.67 162.00 153.00
C 163.62 152.99 165.73 152.80 167.00 154.00
C 166.84 144.85 176.55 150.07 183.00 146.00
C 183.80 145.30 184.27 143.66 185.00 143.00
C 183.51 143.21 180.09 142.88 180.00 141.00
C 177.58 144.95 166.50 148.26 167.00 141.00
C 167.00 141.00 166.01 140.92 166.00 141.00
C 165.77 142.46 163.66 144.45 162.00 143.00 Z"/>
</g>
<g fill="#3C7EB4" fill-opacity="0.39" stroke="None">
<path d="
M 69.00 152.00 
C 68.98 151.50 69.00 151.00 69.00 151.00
C 69.00 147.90 68.24 144.43 68.00 142.00
C 67.57 145.52 68.37 149.15 69.00 152.00 Z"/>
</g>
<g fill="#3489B6" fill-opacity="0.86" stroke="None">
<path d="
M 114.00 157.00 
C 115.95 158.66 119.41 157.46 122.00 159.00
C 121.52 158.52 121.22 157.61 121.00 157.00
C 120.17 154.76 119.92 152.16 119.00 150.00
C 118.60 149.05 118.21 149.41 118.00 148.00
C 116.26 148.02 114.40 147.79 113.00 149.00
C 114.01 147.07 112.05 144.21 112.00 143.00
C 111.63 147.69 111.67 152.99 114.00 157.00 Z"/>
</g>
<g fill="#3F78B3" fill-opacity="0.09" stroke="None">
<path d="
M 183.00 146.00 
C 184.30 145.18 185.21 144.42 186.00 143.00
C 186.00 143.00 185.49 142.93 185.00 143.00
C 184.27 143.66 183.80 145.30 183.00 146.00 Z"/>
</g>
<g fill="#3583B1" fill-opacity="0.86" stroke="None">
<path d="
M 139.00 153.00 
C 139.84 154.30 140.08 155.14 140.00 157.00
C 141.39 154.99 144.36 156.42 145.00 158.00
C 145.00 154.33 145.00 150.67 145.00 147.00
C 141.00 147.00 137.00 147.00 133.00 147.00
C 132.49 151.72 137.34 150.43 139.00 153.00 Z"/>
</g>
<g fill="#2D97BB" fill-opacity="0.79" stroke="None">
<path d="
M 69.00 151.00 
C 69.00 151.00 68.98 151.50 69.00 152.00
C 69.29 159.54 75.50 163.39 82.00 165.00
C 85.43 165.43 89.55 165.23 93.00 165.00
C 105.49 164.15 98.36 156.86 89.67 161.67 C 80.98 166.48 76.96 153.71 75.00 149.00
C 74.89 148.74 74.07 148.35 74.00 148.00
C 71.49 147.25 69.36 148.95 69.00 151.00 Z"/>
</g>
<g fill="#3789B8" fill-opacity="0.14" stroke="None">
<path d="
M 208.00 154.00 
C 209.48 151.78 223.24 152.16 225.00 154.00
C 222.40 153.60 210.40 148.53 208.00 154.00 Z"/>
</g>
<g fill="#35A0CD" fill-opacity="0.26" stroke="None">
<path d="
M 139.00 160.00 
C 139.94 159.00 139.93 158.54 140.00 157.00
C 140.08 155.14 139.84 154.30 139.00 153.00
C 139.39 153.96 139.47 159.10 139.00 160.00 Z"/>
</g>
<g fill="#2C9ABE" fill-opacity="0.91" stroke="None">
<path d="
M 161.00 160.00 
C 159.83 161.47 154.24 160.37 156.00 164.00
C 161.24 162.81 170.17 166.47 173.00 162.00
C 172.22 160.06 169.57 161.39 168.00 161.00
C 169.00 158.64 167.03 155.99 167.00 154.00
C 165.73 152.80 163.62 152.99 162.00 153.00
C 161.95 155.49 162.47 158.16 161.00 160.00 Z"/>
</g>
<g fill="#2B99BB" fill-opacity="0.70" stroke="None">
<path d="
M 207.00 158.00 
C 206.07 156.56 204.14 154.71 204.00 153.00
C 203.82 159.27 196.13 159.95 196.00 165.00
C 200.67 165.00 205.33 165.00 210.00 165.00
C 209.90 161.81 208.42 160.20 207.00 158.00 Z"/>
</g>
<g fill="#2B97BB" fill-opacity="0.72" stroke="None">
<path d="
M 225.00 154.00 
C 225.43 157.28 227.27 161.12 223.00 162.00
C 224.77 168.06 234.09 163.66 239.00 165.00
C 236.81 160.50 233.11 158.58 231.00 153.00
C 229.25 154.05 227.08 154.32 225.00 154.00 Z"/>
</g>
<g fill="#299FC2" fill-opacity="0.76" stroke="None">
<path d="
M 140.00 157.00 
C 139.93 158.54 139.94 159.00 139.00 160.00
C 135.57 163.66 128.07 161.50 124.00 160.00
C 123.41 159.78 122.52 159.31 122.00 159.00
C 119.41 157.46 115.95 158.66 114.00 157.00
C 119.60 166.64 143.96 171.65 145.00 158.00
C 144.36 156.42 141.39 154.99 140.00 157.00 Z"/>
</g>
<g fill="#30A1CA" fill-opacity="0.34" stroke="None">
<path d="
M 122.00 159.00 
C 122.52 159.31 123.41 159.78 124.00 160.00
C 123.66 159.77 121.27 157.40 121.00 157.00
C 121.22 157.61 121.52 158.52 122.00 159.00 Z"/>
</g>
<g fill="#27B3CF" fill-opacity="0.11" stroke="None">
<path d="
M 156.00 164.00 
C 157.15 166.37 175.97 166.24 173.00 162.00
C 170.17 166.47 161.24 162.81 156.00 164.00 Z"/>
</g>
<g fill="#22A3C1" fill-opacity="0.11" stroke="None">
<path d="
M 93.00 165.00 
C 89.55 165.23 85.43 165.43 82.00 165.00
C 85.76 165.93 89.23 165.68 93.00 165.00 Z"/>
</g>
</svg>